<svg width="50" height="50" viewBox="0 0 50 50" fill="none" xmlns="http://www.w3.org/2000/svg">
<g clip-path="url(#clip0_2_4)">
<path d="M13.2146 10.2688L10.2688 7.32292C9.45625 6.50938 8.13542 6.50938 7.32292 7.32292C6.50938 8.13647 6.50938 9.45522 7.32292 10.2688L10.2688 13.2146C10.675 13.6219 11.2083 13.825 11.7417 13.825C12.275 13.825 12.8083 13.6219 13.2146 13.2146C14.0281 12.401 14.0281 11.0823 13.2146 10.2688Z" fill="white"/>
<path d="M6.25 22.9167H2.08333C0.933333 22.9167 0 23.85 0 25C0 26.15 0.933333 27.0833 2.08333 27.0833H6.25C7.4 27.0833 8.33333 26.15 8.33333 25C8.33333 23.85 7.4 22.9167 6.25 22.9167Z" fill="white"/>
<path d="M13.2146 36.7854C12.4021 35.9719 11.0813 35.9719 10.2688 36.7854L7.32292 39.7313C6.50938 40.5448 6.50938 41.8635 7.32292 42.6771C7.72917 43.0844 8.2625 43.2875 8.79584 43.2875C9.32917 43.2875 9.8625 43.0844 10.2688 42.6771L13.2146 39.7313C14.0281 38.9177 14.0281 37.599 13.2146 36.7854Z" fill="white"/>
<path d="M25 41.6667C23.85 41.6667 22.9167 42.6 22.9167 43.75V47.9167C22.9167 49.0667 23.85 50 25 50C26.15 50 27.0833 49.0667 27.0833 47.9167V43.75C27.0833 42.6 26.15 41.6667 25 41.6667Z" fill="white"/>
<path d="M42.6771 39.7313L39.7313 36.7854C38.9188 35.9719 37.5979 35.9719 36.7854 36.7854C35.9719 37.599 35.9719 38.9177 36.7854 39.7313L39.7313 42.6771C40.1375 43.0844 40.6708 43.2875 41.2042 43.2875C41.7375 43.2875 42.2708 43.0844 42.6771 42.6771C43.4906 41.8635 43.4906 40.5448 42.6771 39.7313Z" fill="white"/>
<path d="M47.9167 22.9167H43.75C42.6 22.9167 41.6667 23.85 41.6667 25C41.6667 26.15 42.6 27.0833 43.75 27.0833H47.9167C49.0667 27.0833 50 26.15 50 25C50 23.85 49.0667 22.9167 47.9167 22.9167Z" fill="white"/>
<path d="M42.6771 7.32292C41.8646 6.50938 40.5438 6.50938 39.7313 7.32292L36.7854 10.2688C35.9719 11.0823 35.9719 12.401 36.7854 13.2146C37.1917 13.6219 37.725 13.825 38.2583 13.825C38.7917 13.825 39.325 13.6219 39.7313 13.2146L42.6771 10.2688C43.4906 9.45522 43.4906 8.13647 42.6771 7.32292Z" fill="white"/>
<path d="M25 0C23.85 0 22.9167 0.933333 22.9167 2.08333V6.25C22.9167 7.4 23.85 8.33333 25 8.33333C26.15 8.33333 27.0833 7.4 27.0833 6.25V2.08333C27.0833 0.933333 26.15 0 25 0Z" fill="white"/>
<path d="M25 11.4583C17.5333 11.4583 11.4583 17.5333 11.4583 25C11.4583 32.4667 17.5333 38.5417 25 38.5417C32.4667 38.5417 38.5417 32.4667 38.5417 25C38.5417 17.5333 32.4667 11.4583 25 11.4583ZM25 34.375C19.8312 34.375 15.625 30.1687 15.625 25C15.625 19.8312 19.8312 15.625 25 15.625C30.1687 15.625 34.375 19.8312 34.375 25C34.375 30.1687 30.1687 34.375 25 34.375Z" fill="white"/>
</g>
<defs>
<clipPath id="clip0_2_4">
<rect width="50" height="50" fill="white"/>
</clipPath>
</defs>
</svg>